<?xml version="1.0" standalone="no"?>
<!DOCTYPE svg PUBLIC "-//W3C//DTD SVG 20010904//EN"
 "http://www.w3.org/TR/2001/REC-SVG-20010904/DTD/svg10.dtd">
<svg version="1.0" xmlns="http://www.w3.org/2000/svg"
 width="512.000000pt" height="512.000000pt" viewBox="0 0 512.000000 512.000000"
 preserveAspectRatio="xMidYMid meet">
<metadata>
Created by potrace 1.14, written by Peter Selinger 2001-2017
</metadata>
<g transform="translate(0.000000,512.000000) scale(0.100000,-0.100000)"
fill="#000000" stroke="none">
<path d="M2994 5108 c-39 -19 -45 -50 -44 -258 1 -182 3 -200 21 -219 26 -28
63 -36 98 -21 48 20 53 41 54 243 0 208 -6 239 -55 256 -37 13 -46 13 -74 -1z"/>
<path d="M1435 4677 c-32 -17 -44 -40 -45 -79 0 -36 11 -48 196 -233 184 -183
198 -195 232 -195 45 1 69 17 83 58 8 24 7 37 -5 59 -8 15 -97 110 -198 211
-191 189 -215 206 -263 179z"/>
<path d="M4377 4502 c-104 -103 -194 -198 -201 -212 -17 -33 -11 -70 17 -97
23 -22 35 -26 74 -24 27 1 398 366 413 406 13 35 -10 90 -42 101 -66 21 -63
22 -261 -174z"/>
<path d="M2885 4329 c-22 -4 -58 -9 -81 -12 -100 -14 -271 -73 -380 -132 -353
-191 -615 -553 -669 -925 -3 -25 -8 -54 -10 -65 -2 -11 -4 -33 -4 -48 -1 -16
-5 -26 -9 -23 -4 2 -41 -1 -82 -9 -407 -70 -726 -359 -836 -757 -30 -108 -42
-321 -23 -423 5 -33 12 -73 15 -88 3 -16 12 -46 19 -67 7 -21 11 -41 8 -44 -4
-3 -23 -6 -43 -6 -52 0 -217 -43 -282 -74 -181 -86 -330 -232 -422 -413 -100
-199 -110 -479 -23 -695 108 -272 340 -466 632 -529 74 -16 201 -17 1800 -16
946 2 1731 6 1745 9 14 4 47 13 74 19 247 59 491 252 607 482 34 66 66 146 73
179 3 13 12 57 21 98 19 87 18 252 -1 346 -80 381 -372 676 -746 752 -95 20
-284 23 -356 7 -18 -4 -32 -4 -31 1 3 11 -9 59 -23 96 -9 24 -5 30 38 70 201
184 336 406 399 653 10 39 19 81 21 95 36 257 20 447 -52 652 -101 287 -304
537 -559 690 -128 77 -311 146 -430 163 -22 3 -53 9 -70 12 -44 9 -273 11
-320 2z"/>
<path d="M4657 3117 c-12 -4 -29 -17 -39 -27 -33 -35 -17 -108 29 -129 30 -14
381 -15 418 -1 59 22 64 121 9 151 -29 15 -378 20 -417 6z"/>
</g>
</svg>
